<svg width="32" height="32" fill="none" xmlns="http://www.w3.org/2000/svg"><path fill-rule="evenodd" clip-rule="evenodd" d="M30 6H2a1 1 0 0 0-1 1v18a1 1 0 0 0 1 1h28a1 1 0 0 0 1-1V7a1 1 0 0 0-1-1zM2 5a2 2 0 0 0-2 2v18a2 2 0 0 0 2 2h28a2 2 0 0 0 2-2V7a2 2 0 0 0-2-2H2z" fill="#000"/><path fill="#fff" d="M1 6h30v20H1z"/><path d="M18.889 21.663a4 4 0 0 1-2.24.02l-5.542-1.563v.204a1 1 0 0 1-1 1H7.5a1 1 0 0 1-1-1V14a1 1 0 0 1 1-1h4.903c.475 0 .947.085 1.392.25l4.79 1.778c.386.141.711.37.976.687.264.317.396.77.396 1.363H22.4c.6 0 1.1.21 1.5.633.4.423.6.993.6 1.712a.74.74 0 0 1-.526.707l-5.085 1.533z" fill="#fff"/><path d="M18.889 21.663a4 4 0 0 1-2.24.02l-5.542-1.563v.204a1 1 0 0 1-1 1H7.5a1 1 0 0 1-1-1V14a1 1 0 0 1 1-1h4.903c.475 0 .947.085 1.392.25l4.79 1.778c.386.141.711.37.976.687.264.317.396.77.396 1.363H22.4c.6 0 1.1.21 1.5.633.4.423.6.993.6 1.712a.74.74 0 0 1-.526.707l-5.085 1.533zM7.786 20.056H9.8v-5.788H7.786v5.788zm8.767.307a4 4 0 0 0 2.262-.012l4.356-1.309c-.085-.267-.192-.45-.321-.549a.719.719 0 0 0-.45-.148h-4.436c-.428 0-.825-.028-1.189-.084a7.726 7.726 0 0 1-1.04-.233l-1.067-.325a.65.65 0 1 1 .389-1.239l.979.318c.357.112.696.19 1.018.232.321.042.832.064 1.532.064 0-.17-.032-.335-.097-.497a.617.617 0 0 0-.332-.349l-4.572-1.71a4 4 0 0 0-1.402-.254h-1.076v4.52l5.446 1.575z" fill="#000"/><path d="M25.5 13a3 3 0 1 1-6 0 3 3 0 0 1 6 0z" fill="#fff"/><path fill-rule="evenodd" clip-rule="evenodd" d="M22.5 14.8a1.8 1.8 0 1 0 0-3.6 1.8 1.8 0 0 0 0 3.6zm0 1.2a3 3 0 1 0 0-6 3 3 0 0 0 0 6z" fill="#000"/></svg>